<?xml version="1.0" ?><svg fill="#e9aaaa" viewBox="0 0 64 64" xmlns="http://www.w3.org/2000/svg"><g id="a"/><g id="b"/><g id="c"/><g id="d"/><g id="e"/><g id="f"/><g id="g"/><g id="h"/><g id="i"/><g id="j"/><g id="k"/><g id="l"/><g id="m"/><g id="n"/><g id="o"/><g id="p"><path d="M49.92,33.73c-2.64,0-5.02,1.04-6.82,2.71h-.75c1.73-1.33,3.13-2.86,4.13-4.54h.31c5.6,0,10.16-4.56,10.16-10.16v-4.58c0-2.55-2.07-4.62-4.62-4.62h-6.69l-.04-.19c-.37-1.58-1.81-2.72-3.43-2.72H18.78c-1.62,0-3.06,1.15-3.43,2.72l-.04,.19h-6.69c-2.55,0-4.62,2.07-4.62,4.62v4.58c0,5.6,4.56,10.16,10.16,10.16h.38c.33,.55,.63,1.11,1.05,1.63,2.49,3.14,6.31,5.45,10.39,6.46-.05,2.61-.8,4.81-1.57,6.35h-3.42c-2.22,0-4.02,1.8-4.02,4.02s1.8,4.02,4.02,4.02h26.27c.68,0,1.31-.22,1.89-.57,.26,.02,.51,.08,.77,.08,5.54,0,10.08-4.51,10.08-10.08s-4.51-10.08-10.08-10.08Zm6.35,15.01l-2.33-2.33c.31-.48,.55-1.02,.67-1.6h3.29c-.18,1.47-.76,2.82-1.63,3.93Zm-11.29,1.41l2.33-2.33c.48,.31,1.02,.55,1.61,.67v3.29c-1.47-.19-2.82-.76-3.94-1.63Zm-10.17-3.09c-.91,0-1.66-.74-1.66-1.66s.74-1.66,1.66-1.66h5.03s0,.04,0,.06c0,1.15,.23,2.23,.59,3.26h-5.61Zm-1.66-6.97c0-.91,.74-1.66,1.66-1.66h6.61c-.64,1-1.12,2.11-1.37,3.32h-5.24c-.91,0-1.66-.74-1.66-1.66Zm16.76,6.51c-1.54,0-2.8-1.26-2.8-2.8s1.25-2.8,2.8-2.8,2.8,1.26,2.8,2.8-1.26,2.8-2.8,2.8Zm-7.98-3.8c.18-1.48,.76-2.82,1.63-3.94l2.33,2.33c-.31,.48-.55,1.02-.67,1.6h-3.29Zm10.58-3.02c-.48-.31-1.02-.55-1.61-.67v-3.29c1.48,.18,2.82,.76,3.94,1.63l-2.33,2.33Zm-3.61-.67c-.58,.12-1.12,.36-1.61,.67l-2.33-2.33c1.12-.87,2.46-1.44,3.93-1.63v3.29Zm-6.98,5.69h3.29c.12,.58,.36,1.12,.67,1.61l-2.33,2.33c-.87-1.12-1.44-2.46-1.63-3.94Zm8.98,3.69c.58-.12,1.12-.36,1.61-.67l2.33,2.33c-1.12,.87-2.46,1.44-3.94,1.63v-3.29Zm3.69-5.69c-.12-.58-.36-1.12-.67-1.6l2.33-2.33c.87,1.12,1.44,2.46,1.63,3.94h-3.29Zm-6.34-18.09c-.04-.64-.11-1.29-.26-1.93l-.79-3.4h2.88v2.35c0,1.35-.72,2.46-1.83,2.98Zm4.05-10.18c1.45,0,2.62,1.18,2.62,2.62v4.58c0,4.26-3.3,7.73-7.47,8.09,.38-.99,.62-2.01,.74-3.05,2.27-.62,3.89-2.57,3.89-5.04v-3.35c0-.55-.45-1-1-1h-4.34l-.66-2.84h6.22ZM12.94,22.78c-.15,.65-.17,1.3-.22,1.95-1.14-.52-1.88-1.62-1.88-2.99v-2.35h2.88l-.79,3.4Zm-6.94-1.04v-4.58c0-1.45,1.18-2.62,2.62-2.62h6.22l-.66,2.84h-4.35c-.55,0-1,.45-1,1v3.35c0,2.49,1.64,4.46,3.94,5.06,.12,1.03,.37,2.04,.75,3.04-4.2-.33-7.53-3.81-7.53-8.1Zm11.15,10.55c-1.54-1.94-3.18-5.08-2.26-9.05l2.42-10.43c.16-.68,.78-1.18,1.48-1.18h23.38c.7,0,1.32,.49,1.48,1.18l2.42,10.43c1.42,6.1-3.04,10.89-7.36,13.21h-3.88c-1.44,0-2.66,.86-3.26,2.07-.36,.02-.73,.06-1.08,.06-5.06,0-10.29-2.47-13.32-6.28Zm10.8,8.08c.84,.12,1.68,.2,2.52,.2,.25,0,.52-.03,.77-.04,.11,.87,.48,1.66,1.09,2.23-.72,.67-1.18,1.6-1.18,2.66,0,.33,.11,.63,.19,.94h-4.73c.68-1.58,1.23-3.63,1.33-5.98Zm-8.98,9.99c0-1.11,.91-2.02,2.02-2.02h11.1c-.56,.64-.93,1.46-.93,2.38,0,.61,.18,1.15,.45,1.66h-10.61c-1.11,0-2.02-.91-2.02-2.02Zm15.84,2.02c-.91,0-1.66-.74-1.66-1.66s.74-1.66,1.66-1.66h6.55c.93,1.5,1.82,2.39,3.33,3.31h-9.87Z"/><path d="M33.14,30.84c.32,.16,.66,.24,1,.24,.47,0,.93-.15,1.33-.43,.68-.5,1.03-1.32,.91-2.16l-.43-2.94,2.08-2.13c.59-.6,.79-1.48,.53-2.28-.26-.8-.94-1.39-1.77-1.53l-2.93-.5-1.38-2.63c-.39-.75-1.16-1.21-2-1.21s-1.61,.46-2,1.21l-1.38,2.63-2.93,.5c-.83,.14-1.51,.73-1.77,1.53-.26,.8-.06,1.67,.53,2.28l2.08,2.13-.43,2.94c-.12,.83,.23,1.66,.91,2.16,.68,.49,1.58,.57,2.33,.2l2.66-1.32,2.67,1.32Zm-6.22-1.79c-.11,.06-.21,.02-.27-.02-.06-.04-.12-.12-.11-.25l.5-3.43c.04-.31-.06-.62-.27-.84l-2.42-2.48c-.09-.09-.08-.19-.06-.26s.08-.15,.2-.18l3.42-.58c.31-.05,.57-.25,.72-.52l1.61-3.07c.12-.23,.34-.23,.46,0h0l1.61,3.07c.15,.28,.41,.47,.72,.52l3.42,.58c.13,.02,.18,.11,.2,.18,.02,.07,.03,.17-.06,.26l-2.42,2.48c-.22,.22-.32,.54-.27,.84l.5,3.43c.02,.13-.05,.21-.1,.25-.06,.04-.15,.08-.27,.02l-3.11-1.54c-.14-.07-.29-.1-.44-.1s-.3,.03-.44,.1l-3.11,1.54Z"/></g><g id="q"/><g id="r"/><g id="s"/><g id="t"/><g id="u"/><g id="v"/><g id="w"/><g id="x"/><g id="y"/><g id="a`"/><g id="aa"/><g id="ab"/><g id="ac"/><g id="ad"/><g id="ae"/><g id="af"/><g id="ag"/><g id="ah"/><g id="ai"/><g id="aj"/><g id="ak"/><g id="al"/><g id="am"/><g id="an"/><g id="ao"/><g id="ap"/><g id="aq"/><g id="ar"/><g id="as"/><g id="at"/><g id="au"/><g id="av"/><g id="aw"/><g id="ax"/></svg>