<svg id="e1zqQ0NOixw1" xmlns="http://www.w3.org/2000/svg" xmlns:xlink="http://www.w3.org/1999/xlink" viewBox="0 0 681 577" shape-rendering="geometricPrecision" text-rendering="geometricPrecision"><g clip-rule="evenodd"><path d="M360.5,83.5c-.073,1.5269.594,2.5269,2,3c2.845,4.3566,5.178,9.0232,7,14-.073,1.527.594,2.527,2,3c5.973,13.945,12.473,27.611,19.5,41c4.974,11.752,8.808,23.752,11.5,36c.167,11.005,0,22.005-.5,33-.254,5.016-1.421,9.683-3.5,14-.576-5.309-1.909-10.309-4-15c.08-3.281-.587-6.281-2-9c.08-3.281-.587-6.281-2-9-.934-1.068-1.268-2.401-1-4-.269-4.764-1.602-9.097-4-13c0-.333,0-.667,0-1c.09-2.652-.576-4.985-2-7-8.027-19.442-16.694-38.775-26-58c.073-1.527-.594-2.527-2-3-2.825-6.984-6.159-13.651-10-20c.073-1.5269-.594-2.5269-2-3-.492-2.3185-1.492-4.3185-3-6c.073-1.5269-.594-2.5269-2-3-.88-2.7622-2.046-5.4289-3.5-8-1.183-1.231-2.349-1.231-3.5,0-11.261,14.1971-21.261,29.1971-30,45-1.406.473-2.073,1.473-2,3c0,.333,0,.667,0,1-1.406.473-2.073,1.473-2,3-3.959,8.246-7.625,16.58-11,25-1.574,1.602-2.241,3.602-2,6-1.663,1.938-2.329,4.272-2,7-1.424,2.015-2.09,4.348-2,7c.052,2.403-.281,4.736-1,7-1.519,6.262-2.186,12.762-2,19.5-.186,6.738.481,13.238,2,19.5c2.73,12.669,7.896,24.335,15.5,35c2.086,2.594,4.586,4.594,7.5,6c.473,1.406,1.473,2.073,3,2c9.529,3.552,19.196,3.886,29,1c2.467-.255,4.467-1.255,6-3c4.93-3.095,9.097-7.095,12.5-12c5.031-7.401,9.531-15.068,13.5-23c1.406-.473,2.073-1.473,2-3c1.213-4.093,3.213-7.759,6-11c3.866,12.16,4.7,24.493,2.5,37-1.937,4.214-4.104,8.214-6.5,12-2.087,1.085-3.42,2.751-4,5-10.406,9.56-22.406,16.393-36,20.5-6.667.667-13.333.667-20,0-1.237-.232-2.237-.732-3-1.5-1.602-1.574-3.602-2.241-6-2-18.888-8.893-31.888-23.226-39-43c.206-2.995-.46-5.662-2-8-1.562-14.285-2.229-28.618-2-43c3.933-26.132,12.266-50.799,25-74c1.406-.473,2.073-1.473,2-3c.61-1.934,1.61-3.6007,3-5c1.406-.4731,2.073-1.4731,2-3c10.739-18.0804,24.073-34.0804,40-48c12.856,9.7687,22.856,21.7687,30,36Z" clip-rule="evenodd" fill="#d9bdc4" fill-rule="evenodd"/></g><g clip-rule="evenodd"><path d="M268.5,115.5c.172.992-.162,1.658-1,2-16.815-9.242-33.815-18.2421-51-27-1.419.5047-2.085,1.5047-2,3-1.406.4731-2.073,1.4731-2,3-2.157,6.964-4.157,13.964-6,21-.679,17.83-.679,35.83,0,54c.308,2.424-.026,4.757-1,7-5.875-4.877-10.209-10.877-13-18-1.521-5.745-2.855-11.411-4-17-.819-17.849,1.681-35.183,7.5-52c4.355-8.6907,10.521-15.8573,18.5-21.5c2.413-.4838,4.746-.1505,7,1c20.059,10.226,35.725,25.0593,47,44.5Z" clip-rule="evenodd" fill="#dabdc4" fill-rule="evenodd"/></g><g clip-rule="evenodd"><path d="M471.5,99.5c-.08,3.281.587,6.281,2,9-.31,3.213.023,6.213,1,9c.179,10.69-.155,21.357-1,32c0,.667,0,1.333,0,2-1.574,3.407-2.574,7.073-3,11-3.132,6.811-7.798,12.477-14,17-.886-.825-1.219-1.825-1-3c1.739-9.441,2.405-19.107,2-29c1.793-15.167.793-30.167-3-45-.911-3.9572-1.911-7.9572-3-12-1.699-.1602-3.366.0065-5,.5-14.444,8.5551-29.444,16.055-45,22.5-1.527-.073-2.527.594-3,2-2.112,1.662-3.278,1.328-3.5-1c6.992-10.471,14.825-20.3047,23.5-29.5c25.193-21.6511,42.859-16.8177,53,14.5Z" clip-rule="evenodd" fill="#d9bdc4" fill-rule="evenodd"/></g><g clip-rule="evenodd"><path d="M338.5,76.5c1.406.4731,2.073,1.4731,2,3-1.406-.4731-2.073-1.4731-2-3Z" clip-rule="evenodd" fill="#efe3e6" fill-rule="evenodd"/></g><g clip-rule="evenodd"><path d="M360.5,83.5c1.406.4731,2.073,1.4731,2,3-1.406-.4731-2.073-1.4731-2-3Z" clip-rule="evenodd" fill="#ecdde1" fill-rule="evenodd"/></g><g clip-rule="evenodd"><path d="M343.5,85.5c1.406.4731,2.073,1.4731,2,3-1.406-.4731-2.073-1.4731-2-3Z" clip-rule="evenodd" fill="#eee2e5" fill-rule="evenodd"/></g><g clip-rule="evenodd"><path d="M214.5,93.5c.073,1.5269-.594,2.5269-2,3-.073-1.5269.594-2.5269,2-3Z" clip-rule="evenodd" fill="#eadbde" fill-rule="evenodd"/></g><g clip-rule="evenodd"><path d="M290.5,95.5c.073,1.5269-.594,2.5269-2,3-.073-1.5269.594-2.5269,2-3Z" clip-rule="evenodd" fill="#ebdbdf" fill-rule="evenodd"/></g><g clip-rule="evenodd"><path d="M369.5,100.5c1.406.473,2.073,1.473,2,3-1.406-.473-2.073-1.473-2-3Z" clip-rule="evenodd" fill="#ede0e3" fill-rule="evenodd"/></g><g clip-rule="evenodd"><path d="M285.5,103.5c.073,1.527-.594,2.527-2,3-.073-1.527.594-2.527,2-3Z" clip-rule="evenodd" fill="#ebdde0" fill-rule="evenodd"/></g><g clip-rule="evenodd"><path d="M471.5,99.5c1.413,2.719,2.08,5.719,2,9-1.413-2.719-2.08-5.719-2-9Z" clip-rule="evenodd" fill="#f3ebed" fill-rule="evenodd"/></g><g clip-rule="evenodd"><path d="M355.5,108.5c1.406.473,2.073,1.473,2,3-1.406-.473-2.073-1.473-2-3Z" clip-rule="evenodd" fill="#ecdfe2" fill-rule="evenodd"/></g><g clip-rule="evenodd"><path d="M401.5,113.5c-.473,1.406-1.473,2.073-3,2c.473-1.406,1.473-2.073,3-2Z" clip-rule="evenodd" fill="#efe3e6" fill-rule="evenodd"/></g><g clip-rule="evenodd"><path d="M301.5,113.5c.073,1.527-.594,2.527-2,3-.073-1.527.594-2.527,2-3Z" clip-rule="evenodd" fill="#eddfe2" fill-rule="evenodd"/></g><g clip-rule="evenodd"><path d="M268.5,115.5c1.337.815,2.337,1.982,3,3.5-1.64.348-2.973-.152-4-1.5.838-.342,1.172-1.008,1-2Z" clip-rule="evenodd" fill="#eee2e5" fill-rule="evenodd"/></g><g clip-rule="evenodd"><path d="M299.5,117.5c.073,1.527-.594,2.527-2,3-.073-1.527.594-2.527,2-3Z" clip-rule="evenodd" fill="#efe2e5" fill-rule="evenodd"/></g><g clip-rule="evenodd"><path d="M474.5,117.5c1.158,9.491,1.325,19.158.5,29-.232,1.237-.732,2.237-1.5,3c.845-10.643,1.179-21.31,1-32Z" clip-rule="evenodd" fill="#f4ecee" fill-rule="evenodd"/></g><g clip-rule="evenodd"><path d="M454.5,102.5c3.793,14.833,4.793,29.833,3,45c.257-15.09-.743-30.09-3-45Z" clip-rule="evenodd" fill="#e7d6da" fill-rule="evenodd"/></g><g clip-rule="evenodd"><path d="M188.5,143.5c1.145,5.589,2.479,11.255,4,17-.617-.111-1.117-.444-1.5-1-1.798-5.189-2.631-10.522-2.5-16Z" clip-rule="evenodd" fill="#f2e9eb" fill-rule="evenodd"/></g><g clip-rule="evenodd"><path d="M286.5,145.5c-.095,2.286-.762,4.286-2,6-.241-2.398.426-4.398,2-6Z" clip-rule="evenodd" fill="#e8d7db" fill-rule="evenodd"/></g><g clip-rule="evenodd"><path d="M284.5,151.5c-.221,2.567-.888,4.901-2,7-.329-2.728.337-5.062,2-7Z" clip-rule="evenodd" fill="#e8d5da" fill-rule="evenodd"/></g><g clip-rule="evenodd"><path d="M473.5,151.5c-.017,4.034-1.017,7.701-3,11c.426-3.927,1.426-7.593,3-11Z" clip-rule="evenodd" fill="#f2e8ea" fill-rule="evenodd"/></g><g clip-rule="evenodd"><path d="M206.5,117.5c.849,18.167.849,36.167,0,54-.679-18.17-.679-36.17,0-54Z" clip-rule="evenodd" fill="#e8d7db" fill-rule="evenodd"/></g><g clip-rule="evenodd"><path d="M282.5,158.5c.329,2.728-.337,5.062-2,7-.09-2.652.576-4.985,2-7Z" clip-rule="evenodd" fill="#ede0e3" fill-rule="evenodd"/></g><g clip-rule="evenodd"><path d="M150.5,169.5c6.424,1.719,13.091,2.719,20,3c3.407,1.574,7.073,2.574,11,3c4.44,2.038,9.107,3.704,14,5c15.518,6.254,29.184,15.254,41,27-.683,1.676-2.017,2.343-4,2-1.938-1.663-4.272-2.329-7-2-1.938-1.663-4.272-2.329-7-2-3.733-1.911-7.733-3.244-12-4-2.465-.267-4.799-.934-7-2-6.135-3.491-12.802-5.825-20-7-2.908-2.105-6.242-3.105-10-3-10.863-2.32-21.863-3.653-33-4-6.227-.068-12.227.932-18,3-2.398-.241-4.398.426-6,2-15.1428,6.245-29.1428,14.578-42,25c15.1182,11.399,30.452,22.566,46,33.5c8.061,5.362,16.394,10.195,25,14.5.473,1.406,1.473,2.073,3,2c.891.61,1.891.943,3,1c3.705,1.764,7.705,2.931,12,3.5c9.176.824,18.176.657,27-.5c8.209.087,16.209-.579,24-2c3.682-.165,7.348.001,11,.5-.556.383-.889.883-1,1.5-9.86,7.223-20.86,11.89-33,14-10.989,1.149-21.989,1.149-33,0-4.393-1.765-9.06-2.932-14-3.5-4.222-1.941-8.222-4.108-12-6.5-.473-1.406-1.473-2.073-3-2-22.675-15.003-45.3416-30.003-68-45-.4731-1.406-1.4731-2.073-3-2-1.9341-.61-3.6007-1.61-5-3-.6098-.891-.9431-1.891-1-3c10.0368-12.371,21.3701-23.371,34-33c1.5269.073,2.5269-.594,3-2c.3417-.838,1.0084-1.172,2-1c1.5269.073,2.5269-.594,3-2c18.949-9.048,38.949-12.715,60-11Z" clip-rule="evenodd" fill="#d9bdc4" fill-rule="evenodd"/></g><g clip-rule="evenodd"><path d="M519.5,280.5c-3.979.242-7.646,1.242-11,3-6.475,1.487-13.141,2.153-20,2-6.082-.261-12.082-.928-18-2-3.005-1.777-6.338-2.777-10-3-2.596-.555-4.929-1.555-7-3-.473-1.406-1.473-2.073-3-2-3.525-1.259-6.525-3.259-9-6c19.664-.063,39.331-.397,59-1c8.618-.042,16.618-2.208,24-6.5c22.011-14.004,43.678-28.504,65-43.5c1.09-1.109,1.09-2.109,0-3-12.62-10.467-26.286-19.134-41-26-1.602-1.574-3.602-2.241-6-2-.418-.722-1.084-1.222-2-1.5-2.982-.498-5.982-.665-9-.5-5.667,0-11.333,0-17,0-4.264-.156-8.264.511-12,2-7.218.777-14.218,2.444-21,5-2.652-.09-4.985.576-7,2-.709.904-1.709,1.237-3,1-3.285.428-6.285,1.428-9,3-9.028,3.786-18.361,6.786-28,9-2.398-.241-4.398.426-6,2-.333,0-.667,0-1,0-.992.172-1.658-.162-2-1c21.62-21.114,47.62-33.614,78-37.5c40.345-6.778,73.845,5.055,100.5,35.5c2.732,3.741,5.066,7.741,7,12c.749,1.135.583,2.135-.5,3-21.971,17.137-44.638,33.304-68,48.5-7.505,4.09-15.172,7.59-23,10.5Z" clip-rule="evenodd" fill="#d9bdc4" fill-rule="evenodd"/></g><g clip-rule="evenodd"><path d="M150.5,169.5c6.909.281,13.576,1.281,20,3-6.909-.281-13.576-1.281-20-3Z" clip-rule="evenodd" fill="#f1e6e9" fill-rule="evenodd"/></g><g clip-rule="evenodd"><path d="M457.5,147.5c.405,9.893-.261,19.559-2,29c.205-9.849.872-19.516,2-29Z" clip-rule="evenodd" fill="#e9d8dc" fill-rule="evenodd"/></g><g clip-rule="evenodd"><path d="M383.5,169.5c1.424,2.015,2.09,4.348,2,7-1.424-2.015-2.09-4.348-2-7Z" clip-rule="evenodd" fill="#eee1e4" fill-rule="evenodd"/></g><g clip-rule="evenodd"><path d="M181.5,175.5c5.203.509,9.87,2.176,14,5-4.893-1.296-9.56-2.962-14-5Z" clip-rule="evenodd" fill="#f3ebed" fill-rule="evenodd"/></g><g clip-rule="evenodd"><path d="M385.5,177.5c2.398,3.903,3.731,8.236,4,13-1.779-4.095-3.112-8.428-4-13Z" clip-rule="evenodd" fill="#e9d9dd" fill-rule="evenodd"/></g><g clip-rule="evenodd"><path d="M90.5,180.5c-.4731,1.406-1.4731,2.073-3,2c.4731-1.406,1.4731-2.073,3-2Z" clip-rule="evenodd" fill="#ebdade" fill-rule="evenodd"/></g><g clip-rule="evenodd"><path d="M279.5,172.5c-1.333,13-1.333,26,0,39-1.519-6.262-2.186-12.762-2-19.5-.186-6.738.481-13.238,2-19.5Z" clip-rule="evenodd" fill="#eadade" fill-rule="evenodd"/></g><g clip-rule="evenodd"><path d="M85.5,183.5c-.4731,1.406-1.4731,2.073-3,2c.4731-1.406,1.4731-2.073,3-2Z" clip-rule="evenodd" fill="#eadade" fill-rule="evenodd"/></g><g clip-rule="evenodd"><path d="M258.5,180.5c-.229,14.382.438,28.715,2,43-1.238-4.119-2.071-8.453-2.5-13-.825-10.175-.658-20.175.5-30Z" clip-rule="evenodd" fill="#f0e6e8" fill-rule="evenodd"/></g><g clip-rule="evenodd"><path d="M531.5,185.5c3.018-.165,6.018.002,9,.5.916.278,1.582.778,2,1.5-3.887-.146-7.554-.813-11-2Z" clip-rule="evenodd" fill="#e5d2d7" fill-rule="evenodd"/></g><g clip-rule="evenodd"><path d="M514.5,185.5c-3.767,1.295-7.767,1.961-12,2c3.736-1.489,7.736-2.156,12-2Z" clip-rule="evenodd" fill="#ecdfe2" fill-rule="evenodd"/></g><g clip-rule="evenodd"><path d="M542.5,187.5c2.398-.241,4.398.426,6,2-2.286-.095-4.286-.762-6-2Z" clip-rule="evenodd" fill="#e8d7db" fill-rule="evenodd"/></g><g clip-rule="evenodd"><path d="M118.5,188.5c-1.714,1.238-3.714,1.905-6,2c1.602-1.574,3.602-2.241,6-2Z" clip-rule="evenodd" fill="#e8d8dc" fill-rule="evenodd"/></g><g clip-rule="evenodd"><path d="M169.5,189.5c3.758-.105,7.092.895,10,3-3.662-.223-6.995-1.223-10-3Z" clip-rule="evenodd" fill="#e6d4d9" fill-rule="evenodd"/></g><g clip-rule="evenodd"><path d="M179.5,192.5c7.198,1.175,13.865,3.509,20,7-6.892-1.963-13.559-4.296-20-7Z" clip-rule="evenodd" fill="#e6d4d9" fill-rule="evenodd"/></g><g clip-rule="evenodd"><path d="M481.5,192.5c-2.015,1.424-4.348,2.09-7,2c2.015-1.424,4.348-2.09,7-2Z" clip-rule="evenodd" fill="#ede0e3" fill-rule="evenodd"/></g><g clip-rule="evenodd"><path d="M390.5,194.5c1.413,2.719,2.08,5.719,2,9-1.413-2.719-2.08-5.719-2-9Z" clip-rule="evenodd" fill="#e9d9dd" fill-rule="evenodd"/></g><g clip-rule="evenodd"><path d="M471.5,195.5c-2.584,1.972-5.584,2.972-9,3c2.715-1.572,5.715-2.572,9-3Z" clip-rule="evenodd" fill="#eee2e5" fill-rule="evenodd"/></g><g clip-rule="evenodd"><path d="M206.5,201.5c4.267.756,8.267,2.089,12,4-4.415-.361-8.415-1.694-12-4Z" clip-rule="evenodd" fill="#e7d5d9" fill-rule="evenodd"/></g><g clip-rule="evenodd"><path d="M218.5,205.5c2.728-.329,5.062.337,7,2-2.652.09-4.985-.576-7-2Z" clip-rule="evenodd" fill="#e6d2d7" fill-rule="evenodd"/></g><g clip-rule="evenodd"><path d="M392.5,203.5c1.413,2.719,2.08,5.719,2,9-1.413-2.719-2.08-5.719-2-9Z" clip-rule="evenodd" fill="#eadbde" fill-rule="evenodd"/></g><g clip-rule="evenodd"><path d="M225.5,207.5c2.728-.329,5.062.337,7,2-2.652.09-4.985-.576-7-2Z" clip-rule="evenodd" fill="#e7d5da" fill-rule="evenodd"/></g><g clip-rule="evenodd"><path d="M434.5,207.5c-1.714,1.238-3.714,1.905-6,2c1.602-1.574,3.602-2.241,6-2Z" clip-rule="evenodd" fill="#ebdce0" fill-rule="evenodd"/></g><g clip-rule="evenodd"><path d="M236.5,207.5c2.585.965,3.085,2.299,1.5,4-2.03-.454-3.863-1.12-5.5-2c1.983.343,3.317-.324,4-2Z" clip-rule="evenodd" fill="#e6d4d8" fill-rule="evenodd"/></g><g clip-rule="evenodd"><path d="M425.5,208.5c.342.838,1.008,1.172,2,1-1.101,1.098-2.434,1.265-4,.5.544-.717,1.211-1.217,2-1.5Z" clip-rule="evenodd" fill="#eadbde" fill-rule="evenodd"/></g><g clip-rule="evenodd"><path d="M368.5,214.5c.073,1.527-.594,2.527-2,3-.073-1.527.594-2.527,2-3Z" clip-rule="evenodd" fill="#e9d8dc" fill-rule="evenodd"/></g><g clip-rule="evenodd"><path d="M394.5,212.5c2.091,4.691,3.424,9.691,4,15-2.114-4.694-3.447-9.694-4-15Z" clip-rule="evenodd" fill="#ecdee1" fill-rule="evenodd"/></g><g clip-rule="evenodd"><path d="M402.5,180.5c1.159,11.159,1.326,22.492.5,34-.382,5.195-1.549,10.195-3.5,15-.798-.457-1.131-1.124-1-2c2.079-4.317,3.246-8.984,3.5-14c.5-10.995.667-21.995.5-33Z" clip-rule="evenodd" fill="#ebdcdf" fill-rule="evenodd"/></g><g clip-rule="evenodd"><path d="M48.5,218.5c.0569,1.109.3902,2.109,1,3-2.0518-.553-2.3852-1.553-1-3Z" clip-rule="evenodd" fill="#e9dadd" fill-rule="evenodd"/></g><g clip-rule="evenodd"><path d="M54.5,224.5c1.5269-.073,2.5269.594,3,2-1.5269.073-2.5269-.594-3-2Z" clip-rule="evenodd" fill="#e8d8dc" fill-rule="evenodd"/></g><g clip-rule="evenodd"><path d="M212.5,229.5c1.014,1.174,2.347,1.84,4,2c11.956,5.23,22.456,12.563,31.5,22c17.292,19.617,32.625,40.617,46,63c9.938-8.385,20.771-15.385,32.5-21c8.543-2.323,17.209-2.656,26-1c1.068.934,2.401,1.268,4,1c2.719,1.413,5.719,2.08,9,2c.709.904,1.709,1.237,3,1c.321,5.195-.013,10.195-1,15-11.005-.167-22.005,0-33,.5-1.237.232-2.237.732-3,1.5-5.529,1.872-9.862,5.205-13,10-1.406.473-2.073,1.473-2,3-2.556,4.212-3.89,8.878-4,14-.736,3.195-1.403,6.529-2,10c2.01,1.671,4.343,2.338,7,2c4.047,1.76,8.38,2.76,13,3c2.773,1.157,5.773,1.824,9,2c1.109.79,2.442,1.29,4,1.5-.556.383-.889.883-1,1.5-4.5,2.083-8.834,4.416-13,7-5.176,1.684-10.509,2.35-16,2-6.703-2.504-12.536-6.504-17.5-12-6.588-7.536-12.422-15.536-17.5-24c.073-1.527-.594-2.527-2-3-2.497-5.665-5.497-10.998-9-16c.073-1.527-.594-2.527-2-3-7.782-15.632-18.115-29.465-31-41.5-16.408-11.738-32.242-24.238-47.5-37.5-.688-.832-.521-1.498.5-2c8.08-2.73,16.414-3.73,25-3Z" clip-rule="evenodd" fill="#d9bdc4" fill-rule="evenodd"/></g><g clip-rule="evenodd"><path d="M260.5,223.5c1.54,2.338,2.206,5.005,2,8-1.54-2.338-2.206-5.005-2-8Z" clip-rule="evenodd" fill="#f0e5e8" fill-rule="evenodd"/></g><g clip-rule="evenodd"><path d="M212.5,229.5c1.88-.271,3.213.396,4,2-1.653-.16-2.986-.826-4-2Z" clip-rule="evenodd" fill="#ecdee2" fill-rule="evenodd"/></g><g clip-rule="evenodd"><path d="M410.5,307.5c-1.174,1.014-1.84,2.347-2,4c0,.333,0,.667,0,1-1.371,2.436-2.371,5.103-3,8-3.412,9.149-7.078,18.149-11,27-1.406.473-2.073,1.473-2,3-3.3,4.977-6.633,9.977-10,15-3.667,3-7,6.333-10,10-8.2,5.597-16.533,10.93-25,16-1.083.039-2.083.373-3,1-.798-.457-1.131-1.124-1-2c9.808-18.279,20.641-35.946,32.5-53c5.803-11.271,11.303-22.605,16.5-34c2.334-1.676,3.334-4.009,3-7c5.082-16.666,14.082-30.833,27-42.5c4.062-3.029,8.395-5.529,13-7.5c3.447-.583,6.447-1.916,9-4c.667,0,1.333,0,2,0c2.467-.255,4.467-1.255,6-3c1.656-.646,3.323-1.313,5-2c.667.333,1.333.667,2,1-11.717,10.549-22.551,21.883-32.5,34-7.653,10.64-13.153,22.307-16.5,35Z" clip-rule="evenodd" fill="#dabdc4" fill-rule="evenodd"/></g><g clip-rule="evenodd"><path d="M452.5,239.5c-1.533,1.745-3.533,2.745-6,3c1.533-1.745,3.533-2.745,6-3Z" clip-rule="evenodd" fill="#e7d4d9" fill-rule="evenodd"/></g><g clip-rule="evenodd"><path d="M444.5,242.5c-2.553,2.084-5.553,3.417-9,4c2.553-2.084,5.553-3.417,9-4Z" clip-rule="evenodd" fill="#e9d8dc" fill-rule="evenodd"/></g><g clip-rule="evenodd"><path d="M302.5,252.5c1.527-.073,2.527.594,3,2-1.527.073-2.527-.594-3-2Z" clip-rule="evenodd" fill="#ebdde0" fill-rule="evenodd"/></g><g clip-rule="evenodd"><path d="M340.5,252.5c-1.533,1.745-3.533,2.745-6,3c1.533-1.745,3.533-2.745,6-3Z" clip-rule="evenodd" fill="#e7d5da" fill-rule="evenodd"/></g><g clip-rule="evenodd"><path d="M370.5,252.5c-.58,2.249-1.913,3.915-4,5c.58-2.249,1.913-3.915,4-5Z" clip-rule="evenodd" fill="#f3eaec" fill-rule="evenodd"/></g><g clip-rule="evenodd"><path d="M141.5,263.5c1.527-.073,2.527.594,3,2-1.527.073-2.527-.594-3-2Z" clip-rule="evenodd" fill="#eee2e5" fill-rule="evenodd"/></g><g clip-rule="evenodd"><path d="M210.5,267.5c4.183-1.311,8.516-1.311,13,0-.505,1.419-1.505,2.085-3,2c.111-.617.444-1.117,1-1.5-3.652-.499-7.318-.665-11-.5Z" clip-rule="evenodd" fill="#f3ebed" fill-rule="evenodd"/></g><g clip-rule="evenodd"><path d="M500.5,268.5c-19.669.603-39.336.937-59,1-.876.131-1.543-.202-2-1c4.333-.333,8.667-.667,13-1c15.992.752,31.992,1.085,48,1Z" clip-rule="evenodd" fill="#eee2e5" fill-rule="evenodd"/></g><g clip-rule="evenodd"><path d="M147.5,266.5c12.855,2.578,25.855,3.578,39,3-8.824,1.157-17.824,1.324-27,.5-4.295-.569-8.295-1.736-12-3.5Z" clip-rule="evenodd" fill="#f0e4e6" fill-rule="evenodd"/></g><g clip-rule="evenodd"><path d="M125.5,271.5c1.527-.073,2.527.594,3,2-1.527.073-2.527-.594-3-2Z" clip-rule="evenodd" fill="#e9d8dc" fill-rule="evenodd"/></g><g clip-rule="evenodd"><path d="M301.5,274.5c2.398-.241,4.398.426,6,2-2.398.241-4.398-.426-6-2Z" clip-rule="evenodd" fill="#e9d7dc" fill-rule="evenodd"/></g><g clip-rule="evenodd"><path d="M450.5,275.5c1.527-.073,2.527.594,3,2-1.527.073-2.527-.594-3-2Z" clip-rule="evenodd" fill="#e8d8dc" fill-rule="evenodd"/></g><g clip-rule="evenodd"><path d="M460.5,280.5c3.662.223,6.995,1.223,10,3-3.662-.223-6.995-1.223-10-3Z" clip-rule="evenodd" fill="#ebdbdf" fill-rule="evenodd"/></g><g clip-rule="evenodd"><path d="M519.5,280.5c-3.299,1.983-6.966,2.983-11,3c3.354-1.758,7.021-2.758,11-3Z" clip-rule="evenodd" fill="#eee2e5" fill-rule="evenodd"/></g><g clip-rule="evenodd"><path d="M154.5,283.5c11.011,1.149,22.011,1.149,33,0-5.069,1.557-10.402,2.224-16,2-5.917.195-11.584-.471-17-2Z" clip-rule="evenodd" fill="#ecdde0" fill-rule="evenodd"/></g><g clip-rule="evenodd"><path d="M352.5,294.5c-8.791-1.656-17.457-1.323-26,1c1.342-1.293,3.009-2.126,5-2.5c2.833-.167,5.667-.333,8.5-.5c4.442-.174,8.609.493,12.5,2Z" clip-rule="evenodd" fill="#e9d9dd" fill-rule="evenodd"/></g><g clip-rule="evenodd"><path d="M356.5,295.5c3.281-.08,6.281.587,9,2-3.281.08-6.281-.587-9-2Z" clip-rule="evenodd" fill="#ecdee1" fill-rule="evenodd"/></g><g clip-rule="evenodd"><path d="M395.5,296.5c.334,2.991-.666,5.324-3,7c.435-2.657,1.435-4.991,3-7Z" clip-rule="evenodd" fill="#e4d0d5" fill-rule="evenodd"/></g><g clip-rule="evenodd"><path d="M410.5,307.5c.271,1.88-.396,3.213-2,4c.16-1.653.826-2.986,2-4Z" clip-rule="evenodd" fill="#ecdee2" fill-rule="evenodd"/></g><g clip-rule="evenodd"><path d="M367.5,313.5c-11.851.749-23.851,1.416-36,2c.763-.768,1.763-1.268,3-1.5c10.995-.5,21.995-.667,33-.5Z" clip-rule="evenodd" fill="#f1e7e9" fill-rule="evenodd"/></g><g clip-rule="evenodd"><path d="M265.5,313.5c1.406.473,2.073,1.473,2,3-1.406-.473-2.073-1.473-2-3Z" clip-rule="evenodd" fill="#efe3e6" fill-rule="evenodd"/></g><g clip-rule="evenodd"><path d="M408.5,312.5c.155,3.216-.845,5.883-3,8c.629-2.897,1.629-5.564,3-8Z" clip-rule="evenodd" fill="#f1e6e9" fill-rule="evenodd"/></g><g clip-rule="evenodd"><path d="M318.5,325.5c.073,1.527-.594,2.527-2,3-.073-1.527.594-2.527,2-3Z" clip-rule="evenodd" fill="#ede0e3" fill-rule="evenodd"/></g><g clip-rule="evenodd"><path d="M316.5,328.5c-1.04,4.837-2.373,9.504-4,14c.11-5.122,1.444-9.788,4-14Z" clip-rule="evenodd" fill="#eddfe3" fill-rule="evenodd"/></g><g clip-rule="evenodd"><path d="M276.5,332.5c1.406.473,2.073,1.473,2,3-1.406-.473-2.073-1.473-2-3Z" clip-rule="evenodd" fill="#eee2e5" fill-rule="evenodd"/></g><g clip-rule="evenodd"><path d="M394.5,347.5c.073,1.527-.594,2.527-2,3-.073-1.527.594-2.527,2-3Z" clip-rule="evenodd" fill="#efe3e6" fill-rule="evenodd"/></g><g clip-rule="evenodd"><path d="M317.5,354.5c4.62.24,8.953,1.24,13,3-4.62-.24-8.953-1.24-13-3Z" clip-rule="evenodd" fill="#eee1e4" fill-rule="evenodd"/></g><g clip-rule="evenodd"><path d="M339.5,359.5c1.667,0,3.333,0,5,0c.215,1.679-.452,2.679-2,3c.111-.617.444-1.117,1-1.5-1.558-.21-2.891-.71-4-1.5Z" clip-rule="evenodd" fill="#efe2e5" fill-rule="evenodd"/></g><g clip-rule="evenodd"><path d="M382.5,365.5c-2.333,4.333-5.667,7.667-10,10c3-3.667,6.333-7,10-10Z" clip-rule="evenodd" fill="#f5edef" fill-rule="evenodd"/></g><g clip-rule="evenodd"><path d="M329.5,369.5c-.847,1.466-2.18,2.3-4,2.5-4.189.812-8.189.645-12-.5c5.491.35,10.824-.316,16-2Z" clip-rule="evenodd" fill="#ecdee2" fill-rule="evenodd"/></g><g clip-rule="evenodd"><path d="M314.5,386.5c.343-1.983-.324-3.317-2-4c1.179-2.976,2.513-3.309,4-1-.301,1.922-.967,3.588-2,5Z" clip-rule="evenodd" fill="#e5d1d6" fill-rule="evenodd"/></g><g clip-rule="evenodd"><path d="M312.5,382.5c1.676.683,2.343,2.017,2,4-1.174,1.014-1.84,2.347-2,4-1.181,3.728-2.515,7.395-4,11-1.406.473-2.073,1.473-2,3-5.873,8.72-12.373,17.053-19.5,25c.809,6.959,3.309,13.292,7.5,19-.334,2.991.666,5.324,3,7c1.238,1.714,1.905,3.714,2,6c1.681,8.231,2.347,16.564,2,25-.745,8.087-3.078,15.754-7,23-1.406.473-2.073,1.473-2,3-6.104,8.487-12.938,16.487-20.5,24c2.836-17.695,6.17-35.361,10-53c.667-4,.667-8,0-12-.232-1.237-.732-2.237-1.5-3-.694-5.415-2.36-10.415-5-15-2.138-6.415-4.471-12.749-7-19-.16-1.653-.826-2.986-2-4-.97-3.719-1.804-7.386-2.5-11c15.209-13.724,31.375-26.057,48.5-37Z" clip-rule="evenodd" fill="#d9bdc4" fill-rule="evenodd"/></g><g clip-rule="evenodd"><path d="M314.5,386.5c.271,1.88-.396,3.213-2,4c.16-1.653.826-2.986,2-4Z" clip-rule="evenodd" fill="#e9d8dc" fill-rule="evenodd"/></g><g clip-rule="evenodd"><path d="M343.5,390.5c-.131.876.202,1.543,1,2c.917-.627,1.917-.961,3-1-1.236,1.543-2.902,2.543-5,3-.921-1.531-.588-2.865,1-4Z" clip-rule="evenodd" fill="#efe3e6" fill-rule="evenodd"/></g><g clip-rule="evenodd"><path d="M365.5,407.5c-1.758,3.354-2.758,7.021-3,11-1.424,2.015-2.09,4.348-2,7-1.424,2.015-2.09,4.348-2,7-2.916,7.664-4.916,15.664-6,24-1.828,4.603-2.161,9.269-1,14c3.392,4.901,7.392,9.401,12,13.5c14.362,9.359,27.196,20.526,38.5,33.5c6.332,8.659,12.165,17.659,17.5,27-3.259,1.266-6.593,1.766-10,1.5-6.024-7.022-12.357-13.689-19-20-16-11.333-32-22.667-48-34-5.555-5.683-9.555-12.183-12-19.5.201-6.009.534-12.009,1-18c1.54-2.338,2.206-5.005,2-8c.61-.891.943-1.891,1-3c2.334-1.676,3.334-4.009,3-7c1.174-1.014,1.84-2.347,2-4c1.406-.473,2.073-1.473,2-3c6.483-11.254,14.65-21.254,24.5-30-.083,2.619-.25,5.286-.5,8Z" clip-rule="evenodd" fill="#d9bdc4" fill-rule="evenodd"/></g><g clip-rule="evenodd"><path d="M308.5,401.5c.073,1.527-.594,2.527-2,3-.073-1.527.594-2.527,2-3Z" clip-rule="evenodd" fill="#efe2e5" fill-rule="evenodd"/></g><g clip-rule="evenodd"><path d="M365.5,407.5c-.242,3.979-1.242,7.646-3,11c.242-3.979,1.242-7.646,3-11Z" clip-rule="evenodd" fill="#efe2e6" fill-rule="evenodd"/></g><g clip-rule="evenodd"><path d="M362.5,418.5c.09,2.652-.576,4.985-2,7-.09-2.652.576-4.985,2-7Z" clip-rule="evenodd" fill="#efe2e5" fill-rule="evenodd"/></g><g clip-rule="evenodd"><path d="M360.5,425.5c.09,2.652-.576,4.985-2,7-.09-2.652.576-4.985,2-7Z" clip-rule="evenodd" fill="#efe2e5" fill-rule="evenodd"/></g><g clip-rule="evenodd"><path d="M341.5,429.5c.073,1.527-.594,2.527-2,3-.073-1.527.594-2.527,2-3Z" clip-rule="evenodd" fill="#eadade" fill-rule="evenodd"/></g><g clip-rule="evenodd"><path d="M266.5,430.5c1.174,1.014,1.84,2.347,2,4-1.604-.787-2.271-2.12-2-4Z" clip-rule="evenodd" fill="#ecdfe2" fill-rule="evenodd"/></g><g clip-rule="evenodd"><path d="M358.5,432.5c-1.398,8.26-3.398,16.26-6,24c1.084-8.336,3.084-16.336,6-24Z" clip-rule="evenodd" fill="#ecdee1" fill-rule="evenodd"/></g><g clip-rule="evenodd"><path d="M337.5,436.5c.334,2.991-.666,5.324-3,7c.435-2.657,1.435-4.991,3-7Z" clip-rule="evenodd" fill="#e5d2d6" fill-rule="evenodd"/></g><g clip-rule="evenodd"><path d="M294.5,448.5c1.565,2.009,2.565,4.343,3,7-2.334-1.676-3.334-4.009-3-7Z" clip-rule="evenodd" fill="#e4d0d5" fill-rule="evenodd"/></g><g clip-rule="evenodd"><path d="M333.5,446.5c.206,2.995-.46,5.662-2,8-.206-2.995.46-5.662,2-8Z" clip-rule="evenodd" fill="#ebdde0" fill-rule="evenodd"/></g><g clip-rule="evenodd"><path d="M275.5,453.5c2.64,4.585,4.306,9.585,5,15-2.244-4.733-3.911-9.733-5-15Z" clip-rule="evenodd" fill="#f1e6e9" fill-rule="evenodd"/></g><g clip-rule="evenodd"><path d="M352.5,456.5c-.169,4.681-.502,9.348-1,14-1.161-4.731-.828-9.397,1-14Z" clip-rule="evenodd" fill="#ecdee2" fill-rule="evenodd"/></g><g clip-rule="evenodd"><path d="M331.5,454.5c-.466,5.991-.799,11.991-1,18-1.329-6.066-.995-12.066,1-18Z" clip-rule="evenodd" fill="#eddfe2" fill-rule="evenodd"/></g><g clip-rule="evenodd"><path d="M299.5,461.5c1.276,2.062,2.11,4.396,2.5,7c.819,6.181.653,12.181-.5,18c.347-8.436-.319-16.769-2-25Z" clip-rule="evenodd" fill="#eadbdf" fill-rule="evenodd"/></g><g clip-rule="evenodd"><path d="M294.5,509.5c.073,1.527-.594,2.527-2,3-.073-1.527.594-2.527,2-3Z" clip-rule="evenodd" fill="#eee1e5" fill-rule="evenodd"/></g></svg>
