<svg fill="#e9aaaa" xmlns="http://www.w3.org/2000/svg" shape-rendering="geometricPrecision" text-rendering="geometricPrecision" viewBox="0 0 681 577"><path fill="#e9aaaa" fill-rule="evenodd" d="M360.5 83.5c-.073 1.527.594 2.527 2 3a68.714 68.714 0 0 1 7 14c-.073 1.527.594 2.527 2 3a577.296 577.296 0 0 0 19.5 41c4.974 11.752 8.808 23.752 11.5 36 .167 11.005 0 22.005-.5 33-.254 5.016-1.421 9.683-3.5 14-.576-5.309-1.909-10.309-4-15 .08-3.281-.587-6.281-2-9 .08-3.281-.587-6.281-2-9-.934-1.068-1.268-2.401-1-4-.269-4.764-1.602-9.097-4-13v-1c.09-2.652-.576-4.985-2-7a1072.522 1072.522 0 0 0-26-58c.073-1.527-.594-2.527-2-3a139.958 139.958 0 0 0-10-20c.073-1.527-.594-2.527-2-3-.492-2.318-1.492-4.319-3-6 .073-1.527-.594-2.527-2-3a42.3 42.3 0 0 0-3.5-8c-1.183-1.231-2.349-1.231-3.5 0a326.738 326.738 0 0 0-30 45c-1.406.473-2.073 1.473-2 3v1c-1.406.473-2.073 1.473-2 3a411.389 411.389 0 0 0-11 25c-1.574 1.602-2.241 3.602-2 6-1.663 1.938-2.329 4.272-2 7-1.424 2.015-2.09 4.348-2 7a21.435 21.435 0 0 1-1 7c-1.519 6.262-2.186 12.762-2 19.5-.186 6.738.481 13.238 2 19.5 2.73 12.669 7.896 24.335 15.5 35 2.086 2.594 4.586 4.594 7.5 6 .473 1.406 1.473 2.073 3 2 9.529 3.552 19.196 3.886 29 1 2.467-.255 4.467-1.255 6-3 4.93-3.095 9.097-7.095 12.5-12a200.346 200.346 0 0 0 13.5-23c1.406-.473 2.073-1.473 2-3a29.576 29.576 0 0 1 6-11c3.866 12.16 4.7 24.493 2.5 37a102.31 102.31 0 0 1-6.5 12c-2.087 1.085-3.42 2.751-4 5-10.406 9.56-22.406 16.393-36 20.5a100.2 100.2 0 0 1-20 0c-1.237-.232-2.237-.732-3-1.5-1.602-1.574-3.602-2.241-6-2-18.888-8.893-31.888-23.226-39-43 .206-2.995-.46-5.662-2-8a344.714 344.714 0 0 1-2-43c3.933-26.132 12.266-50.799 25-74 1.406-.473 2.073-1.473 2-3 .61-1.934 1.61-3.6 3-5 1.406-.473 2.073-1.473 2-3 10.739-18.08 24.073-34.08 40-48 12.856 9.769 22.856 21.769 30 36Z" clip-rule="evenodd"/><path fill="#e9aaaa" fill-rule="evenodd" d="M268.5 115.5c.172.992-.162 1.658-1 2a1847.154 1847.154 0 0 0-51-27c-1.419.505-2.085 1.505-2 3-1.406.473-2.073 1.473-2 3a494.312 494.312 0 0 0-6 21 715.997 715.997 0 0 0 0 54 13.116 13.116 0 0 1-1 7c-5.875-4.877-10.209-10.877-13-18a307.854 307.854 0 0 1-4-17c-.819-17.849 1.681-35.183 7.5-52 4.355-8.69 10.521-15.857 18.5-21.5 2.413-.484 4.746-.15 7 1 20.059 10.226 35.725 25.06 47 44.5Z" clip-rule="evenodd"/><path fill="#e9aaaa" fill-rule="evenodd" d="M471.5 99.5c-.08 3.281.587 6.281 2 9-.31 3.213.023 6.213 1 9a333.536 333.536 0 0 1-1 32v2c-1.574 3.407-2.574 7.073-3 11-3.132 6.811-7.798 12.477-14 17-.886-.825-1.219-1.825-1-3 1.739-9.441 2.405-19.107 2-29 1.793-15.167.793-30.167-3-45a335.702 335.702 0 0 0-3-12 12.935 12.935 0 0 0-5 .5 354.275 354.275 0 0 1-45 22.5c-1.527-.073-2.527.594-3 2-2.112 1.662-3.278 1.328-3.5-1A224.988 224.988 0 0 1 418.5 85c25.193-21.651 42.859-16.818 53 14.5Z" clip-rule="evenodd"/><path fill="#e9aaaa" fill-rule="evenodd" d="M338.5 76.5c1.406.473 2.073 1.473 2 3-1.406-.473-2.073-1.473-2-3Z" clip-rule="evenodd"/><path fill="#e9aaaa" fill-rule="evenodd" d="M360.5 83.5c1.406.473 2.073 1.473 2 3-1.406-.473-2.073-1.473-2-3Z" clip-rule="evenodd"/><path fill="#e9aaaa" fill-rule="evenodd" d="M343.5 85.5c1.406.473 2.073 1.473 2 3-1.406-.473-2.073-1.473-2-3Z" clip-rule="evenodd"/><path fill="#e9aaaa" fill-rule="evenodd" d="M214.5 93.5c.073 1.527-.594 2.527-2 3-.073-1.527.594-2.527 2-3Z" clip-rule="evenodd"/><path fill="#e9aaaa" fill-rule="evenodd" d="M290.5 95.5c.073 1.527-.594 2.527-2 3-.073-1.527.594-2.527 2-3Z" clip-rule="evenodd"/><path fill="#e9aaaa" fill-rule="evenodd" d="M369.5 100.5c1.406.473 2.073 1.473 2 3-1.406-.473-2.073-1.473-2-3Z" clip-rule="evenodd"/><path fill="#e9aaaa" fill-rule="evenodd" d="M285.5 103.5c.073 1.527-.594 2.527-2 3-.073-1.527.594-2.527 2-3Z" clip-rule="evenodd"/><path fill="#e9aaaa" fill-rule="evenodd" d="M471.5 99.5c1.413 2.719 2.08 5.719 2 9-1.413-2.719-2.08-5.719-2-9Z" clip-rule="evenodd"/><path fill="#e9aaaa" fill-rule="evenodd" d="M355.5 108.5c1.406.473 2.073 1.473 2 3-1.406-.473-2.073-1.473-2-3Z" clip-rule="evenodd"/><path fill="#e9aaaa" fill-rule="evenodd" d="M401.5 113.5c-.473 1.406-1.473 2.073-3 2 .473-1.406 1.473-2.073 3-2Z" clip-rule="evenodd"/><path fill="#e9aaaa" fill-rule="evenodd" d="M301.5 113.5c.073 1.527-.594 2.527-2 3-.073-1.527.594-2.527 2-3Z" clip-rule="evenodd"/><path fill="#e9aaaa" fill-rule="evenodd" d="M268.5 115.5c1.337.815 2.337 1.982 3 3.5-1.64.348-2.973-.152-4-1.5.838-.342 1.172-1.008 1-2Z" clip-rule="evenodd"/><path fill="#e9aaaa" fill-rule="evenodd" d="M299.5 117.5c.073 1.527-.594 2.527-2 3-.073-1.527.594-2.527 2-3Z" clip-rule="evenodd"/><path fill="#e9aaaa" fill-rule="evenodd" d="M474.5 117.5c1.158 9.491 1.325 19.158.5 29-.232 1.237-.732 2.237-1.5 3a333.536 333.536 0 0 0 1-32Z" clip-rule="evenodd"/><path fill="#e9aaaa" fill-rule="evenodd" d="M454.5 102.5c3.793 14.833 4.793 29.833 3 45 .257-15.09-.743-30.09-3-45Z" clip-rule="evenodd"/><path fill="#e9aaaa" fill-rule="evenodd" d="M188.5 143.5a307.854 307.854 0 0 0 4 17c-.617-.111-1.117-.444-1.5-1a45.183 45.183 0 0 1-2.5-16Z" clip-rule="evenodd"/><path fill="#e9aaaa" fill-rule="evenodd" d="M286.5 145.5c-.095 2.286-.762 4.286-2 6-.241-2.398.426-4.398 2-6Z" clip-rule="evenodd"/><path fill="#e9aaaa" fill-rule="evenodd" d="M284.5 151.5c-.221 2.567-.888 4.901-2 7-.329-2.728.337-5.062 2-7Z" clip-rule="evenodd"/><path fill="#e9aaaa" fill-rule="evenodd" d="M473.5 151.5c-.017 4.034-1.017 7.701-3 11 .426-3.927 1.426-7.593 3-11Z" clip-rule="evenodd"/><path fill="#e9aaaa" fill-rule="evenodd" d="M206.5 117.5a572.744 572.744 0 0 1 0 54 715.997 715.997 0 0 1 0-54Z" clip-rule="evenodd"/><path fill="#e9aaaa" fill-rule="evenodd" d="M282.5 158.5c.329 2.728-.337 5.062-2 7-.09-2.652.576-4.985 2-7Z" clip-rule="evenodd"/><path fill="#e9aaaa" fill-rule="evenodd" d="M150.5 169.5c6.424 1.719 13.091 2.719 20 3 3.407 1.574 7.073 2.574 11 3a86.704 86.704 0 0 0 14 5c15.518 6.254 29.184 15.254 41 27-.683 1.676-2.017 2.343-4 2-1.938-1.663-4.272-2.329-7-2-1.938-1.663-4.272-2.329-7-2-3.733-1.911-7.733-3.244-12-4a21.17 21.17 0 0 1-7-2c-6.135-3.491-12.802-5.825-20-7-2.908-2.105-6.242-3.105-10-3a185.314 185.314 0 0 0-33-4c-6.227-.068-12.227.932-18 3-2.398-.241-4.398.426-6 2-15.143 6.245-29.143 14.578-42 25a1716.456 1716.456 0 0 0 46 33.5 234.624 234.624 0 0 0 25 14.5c.473 1.406 1.473 2.073 3 2 .891.61 1.891.943 3 1 3.705 1.764 7.705 2.931 12 3.5 9.176.824 18.176.657 27-.5 8.209.087 16.209-.579 24-2a60.931 60.931 0 0 1 11 .5c-.556.383-.889.883-1 1.5-9.86 7.223-20.86 11.89-33 14a158.394 158.394 0 0 1-33 0c-4.393-1.765-9.06-2.932-14-3.5a102.21 102.21 0 0 1-12-6.5c-.473-1.406-1.473-2.073-3-2a533105.958 533105.958 0 0 1-68-45c-.473-1.406-1.473-2.073-3-2-1.934-.61-3.6-1.61-5-3a5.728 5.728 0 0 1-1-3 199.013 199.013 0 0 1 34-33c1.527.073 2.527-.594 3-2 .342-.838 1.008-1.172 2-1 1.527.073 2.527-.594 3-2 18.949-9.048 38.949-12.715 60-11ZM519.5 280.5c-3.979.242-7.646 1.242-11 3-6.475 1.487-13.141 2.153-20 2a132.815 132.815 0 0 1-18-2c-3.005-1.777-6.338-2.777-10-3-2.596-.555-4.929-1.555-7-3-.473-1.406-1.473-2.073-3-2-3.525-1.259-6.525-3.259-9-6a2150.13 2150.13 0 0 0 59-1c8.618-.042 16.618-2.208 24-6.5a1688.739 1688.739 0 0 0 65-43.5c1.09-1.109 1.09-2.109 0-3-12.62-10.467-26.286-19.134-41-26-1.602-1.574-3.602-2.241-6-2-.418-.722-1.084-1.222-2-1.5a40.914 40.914 0 0 0-9-.5h-17c-4.264-.156-8.264.511-12 2a85.15 85.15 0 0 0-21 5c-2.652-.09-4.985.576-7 2-.709.904-1.709 1.237-3 1-3.285.428-6.285 1.428-9 3a171.579 171.579 0 0 1-28 9c-2.398-.241-4.398.426-6 2h-1c-.992.172-1.658-.162-2-1 21.62-21.114 47.62-33.614 78-37.5 40.345-6.778 73.845 5.055 100.5 35.5a67.876 67.876 0 0 1 7 12c.749 1.135.583 2.135-.5 3a974.258 974.258 0 0 1-68 48.5 176.677 176.677 0 0 1-23 10.5Z" clip-rule="evenodd"/><path fill="#e9aaaa" fill-rule="evenodd" d="M150.5 169.5c6.909.281 13.576 1.281 20 3-6.909-.281-13.576-1.281-20-3Z" clip-rule="evenodd"/><path fill="#e9aaaa" fill-rule="evenodd" d="M457.5 147.5c.405 9.893-.261 19.559-2 29 .205-9.849.872-19.516 2-29Z" clip-rule="evenodd"/><path fill="#e9aaaa" fill-rule="evenodd" d="M383.5 169.5c1.424 2.015 2.09 4.348 2 7-1.424-2.015-2.09-4.348-2-7Z" clip-rule="evenodd"/><path fill="#e9aaaa" fill-rule="evenodd" d="M181.5 175.5c5.203.509 9.87 2.176 14 5a86.704 86.704 0 0 1-14-5Z" clip-rule="evenodd"/><path fill="#e9aaaa" fill-rule="evenodd" d="M385.5 177.5c2.398 3.903 3.731 8.236 4 13-1.779-4.095-3.112-8.428-4-13Z" clip-rule="evenodd"/><path fill="#e9aaaa" fill-rule="evenodd" d="M90.5 180.5c-.473 1.406-1.473 2.073-3 2 .473-1.406 1.473-2.073 3-2Z" clip-rule="evenodd"/><path fill="#e9aaaa" fill-rule="evenodd" d="M279.5 172.5c-1.333 13-1.333 26 0 39-1.519-6.262-2.186-12.762-2-19.5-.186-6.738.481-13.238 2-19.5ZM85.5 183.5c-.473 1.406-1.473 2.073-3 2 .473-1.406 1.473-2.073 3-2Z" clip-rule="evenodd"/><path fill="#e9aaaa" fill-rule="evenodd" d="M258.5 180.5a344.714 344.714 0 0 0 2 43c-1.238-4.119-2.071-8.453-2.5-13-.825-10.175-.658-20.175.5-30Z" clip-rule="evenodd"/><path fill="#e9aaaa" fill-rule="evenodd" d="M531.5 185.5a40.914 40.914 0 0 1 9 .5c.916.278 1.582.778 2 1.5-3.887-.146-7.554-.813-11-2Z" clip-rule="evenodd"/><path fill="#e9aaaa" fill-rule="evenodd" d="M514.5 185.5c-3.767 1.295-7.767 1.961-12 2 3.736-1.489 7.736-2.156 12-2Z" clip-rule="evenodd"/><path fill="#e9aaaa" fill-rule="evenodd" d="M542.5 187.5c2.398-.241 4.398.426 6 2-2.286-.095-4.286-.762-6-2Z" clip-rule="evenodd"/><path fill="#e9aaaa" fill-rule="evenodd" d="M118.5 188.5c-1.714 1.238-3.714 1.905-6 2 1.602-1.574 3.602-2.241 6-2Z" clip-rule="evenodd"/><path fill="#e9aaaa" fill-rule="evenodd" d="M169.5 189.5c3.758-.105 7.092.895 10 3-3.662-.223-6.995-1.223-10-3ZM179.5 192.5c7.198 1.175 13.865 3.509 20 7a176.565 176.565 0 0 1-20-7Z" clip-rule="evenodd"/><path fill="#e9aaaa" fill-rule="evenodd" d="M481.5 192.5c-2.015 1.424-4.348 2.09-7 2 2.015-1.424 4.348-2.09 7-2Z" clip-rule="evenodd"/><path fill="#e9aaaa" fill-rule="evenodd" d="M390.5 194.5c1.413 2.719 2.08 5.719 2 9-1.413-2.719-2.08-5.719-2-9Z" clip-rule="evenodd"/><path fill="#e9aaaa" fill-rule="evenodd" d="M471.5 195.5c-2.584 1.972-5.584 2.972-9 3 2.715-1.572 5.715-2.572 9-3Z" clip-rule="evenodd"/><path fill="#e9aaaa" fill-rule="evenodd" d="M206.5 201.5c4.267.756 8.267 2.089 12 4-4.415-.361-8.415-1.694-12-4Z" clip-rule="evenodd"/><path fill="#e9aaaa" fill-rule="evenodd" d="M218.5 205.5c2.728-.329 5.062.337 7 2-2.652.09-4.985-.576-7-2Z" clip-rule="evenodd"/><path fill="#e9aaaa" fill-rule="evenodd" d="M392.5 203.5c1.413 2.719 2.08 5.719 2 9-1.413-2.719-2.08-5.719-2-9Z" clip-rule="evenodd"/><path fill="#e9aaaa" fill-rule="evenodd" d="M225.5 207.5c2.728-.329 5.062.337 7 2-2.652.09-4.985-.576-7-2Z" clip-rule="evenodd"/><path fill="#e9aaaa" fill-rule="evenodd" d="M434.5 207.5c-1.714 1.238-3.714 1.905-6 2 1.602-1.574 3.602-2.241 6-2Z" clip-rule="evenodd"/><path fill="#e9aaaa" fill-rule="evenodd" d="M236.5 207.5c2.585.965 3.085 2.299 1.5 4-2.03-.454-3.863-1.12-5.5-2 1.983.343 3.317-.324 4-2Z" clip-rule="evenodd"/><path fill="#e9aaaa" fill-rule="evenodd" d="M425.5 208.5c.342.838 1.008 1.172 2 1-1.101 1.098-2.434 1.265-4 .5.544-.717 1.211-1.217 2-1.5Z" clip-rule="evenodd"/><path fill="#e9aaaa" fill-rule="evenodd" d="M368.5 214.5c.073 1.527-.594 2.527-2 3-.073-1.527.594-2.527 2-3Z" clip-rule="evenodd"/><path fill="#e9aaaa" fill-rule="evenodd" d="M394.5 212.5c2.091 4.691 3.424 9.691 4 15-2.114-4.694-3.447-9.694-4-15Z" clip-rule="evenodd"/><path fill="#e9aaaa" fill-rule="evenodd" d="M402.5 180.5c1.159 11.159 1.326 22.492.5 34a49.223 49.223 0 0 1-3.5 15c-.798-.457-1.131-1.124-1-2 2.079-4.317 3.246-8.984 3.5-14 .5-10.995.667-21.995.5-33Z" clip-rule="evenodd"/><path fill="#e9aaaa" fill-rule="evenodd" d="M48.5 218.5a5.728 5.728 0 0 0 1 3c-2.052-.553-2.385-1.553-1-3Z" clip-rule="evenodd"/><path fill="#e9aaaa" fill-rule="evenodd" d="M54.5 224.5c1.527-.073 2.527.594 3 2-1.527.073-2.527-.594-3-2Z" clip-rule="evenodd"/><path fill="#e9aaaa" fill-rule="evenodd" d="M212.5 229.5c1.014 1.174 2.347 1.84 4 2 11.956 5.23 22.456 12.563 31.5 22a423.947 423.947 0 0 1 46 63 151.921 151.921 0 0 1 32.5-21c8.543-2.323 17.209-2.656 26-1 1.068.934 2.401 1.268 4 1 2.719 1.413 5.719 2.08 9 2 .709.904 1.709 1.237 3 1 .321 5.195-.013 10.195-1 15-11.005-.167-22.005 0-33 .5-1.237.232-2.237.732-3 1.5-5.529 1.872-9.862 5.205-13 10-1.406.473-2.073 1.473-2 3-2.556 4.212-3.89 8.878-4 14a182.023 182.023 0 0 0-2 10c2.01 1.671 4.343 2.338 7 2 4.047 1.76 8.38 2.76 13 3 2.773 1.157 5.773 1.824 9 2 1.109.79 2.442 1.29 4 1.5-.556.383-.889.883-1 1.5a121.33 121.33 0 0 0-13 7c-5.176 1.684-10.509 2.35-16 2-6.703-2.504-12.536-6.504-17.5-12a166.775 166.775 0 0 1-17.5-24c.073-1.527-.594-2.527-2-3a93.691 93.691 0 0 0-9-16c.073-1.527-.594-2.527-2-3-7.782-15.632-18.115-29.465-31-41.5a639.955 639.955 0 0 1-47.5-37.5c-.688-.832-.521-1.498.5-2 8.08-2.73 16.414-3.73 25-3Z" clip-rule="evenodd"/><path fill="#e9aaaa" fill-rule="evenodd" d="M260.5 223.5c1.54 2.338 2.206 5.005 2 8-1.54-2.338-2.206-5.005-2-8Z" clip-rule="evenodd"/><path fill="#e9aaaa" fill-rule="evenodd" d="M212.5 229.5c1.88-.271 3.213.396 4 2-1.653-.16-2.986-.826-4-2Z" clip-rule="evenodd"/><path fill="#e9aaaa" fill-rule="evenodd" d="M410.5 307.5c-1.174 1.014-1.84 2.347-2 4v1c-1.371 2.436-2.371 5.103-3 8a484.652 484.652 0 0 1-11 27c-1.406.473-2.073 1.473-2 3a3583.47 3583.47 0 0 1-10 15c-3.667 3-7 6.333-10 10a499.708 499.708 0 0 1-25 16 5.576 5.576 0 0 0-3 1c-.798-.457-1.131-1.124-1-2a539.801 539.801 0 0 1 32.5-53 794.464 794.464 0 0 0 16.5-34c2.334-1.676 3.334-4.009 3-7 5.082-16.666 14.082-30.833 27-42.5a63.436 63.436 0 0 1 13-7.5c3.447-.583 6.447-1.916 9-4h2c2.467-.255 4.467-1.255 6-3a319.364 319.364 0 0 0 5-2l2 1a312.709 312.709 0 0 0-32.5 34c-7.653 10.64-13.153 22.307-16.5 35Z" clip-rule="evenodd"/><path fill="#e9aaaa" fill-rule="evenodd" d="M452.5 239.5c-1.533 1.745-3.533 2.745-6 3 1.533-1.745 3.533-2.745 6-3Z" clip-rule="evenodd"/><path fill="#e9aaaa" fill-rule="evenodd" d="M444.5 242.5c-2.553 2.084-5.553 3.417-9 4 2.553-2.084 5.553-3.417 9-4Z" clip-rule="evenodd"/><path fill="#e9aaaa" fill-rule="evenodd" d="M302.5 252.5c1.527-.073 2.527.594 3 2-1.527.073-2.527-.594-3-2Z" clip-rule="evenodd"/><path fill="#e9aaaa" fill-rule="evenodd" d="M340.5 252.5c-1.533 1.745-3.533 2.745-6 3 1.533-1.745 3.533-2.745 6-3Z" clip-rule="evenodd"/><path fill="#e9aaaa" fill-rule="evenodd" d="M370.5 252.5c-.58 2.249-1.913 3.915-4 5 .58-2.249 1.913-3.915 4-5Z" clip-rule="evenodd"/><path fill="#e9aaaa" fill-rule="evenodd" d="M141.5 263.5c1.527-.073 2.527.594 3 2-1.527.073-2.527-.594-3-2Z" clip-rule="evenodd"/><path fill="#e9aaaa" fill-rule="evenodd" d="M210.5 267.5c4.183-1.311 8.516-1.311 13 0-.505 1.419-1.505 2.085-3 2 .111-.617.444-1.117 1-1.5a60.931 60.931 0 0 0-11-.5Z" clip-rule="evenodd"/><path fill="#e9aaaa" fill-rule="evenodd" d="M500.5 268.5a2150.13 2150.13 0 0 1-59 1c-.876.131-1.543-.202-2-1l13-1a917.952 917.952 0 0 0 48 1Z" clip-rule="evenodd"/><path fill="#e9aaaa" fill-rule="evenodd" d="M147.5 266.5a161.53 161.53 0 0 0 39 3c-8.824 1.157-17.824 1.324-27 .5-4.295-.569-8.295-1.736-12-3.5Z" clip-rule="evenodd"/><path fill="#e9aaaa" fill-rule="evenodd" d="M125.5 271.5c1.527-.073 2.527.594 3 2-1.527.073-2.527-.594-3-2Z" clip-rule="evenodd"/><path fill="#e9aaaa" fill-rule="evenodd" d="M301.5 274.5c2.398-.241 4.398.426 6 2-2.398.241-4.398-.426-6-2Z" clip-rule="evenodd"/><path fill="#e9aaaa" fill-rule="evenodd" d="M450.5 275.5c1.527-.073 2.527.594 3 2-1.527.073-2.527-.594-3-2Z" clip-rule="evenodd"/><path fill="#e9aaaa" fill-rule="evenodd" d="M460.5 280.5c3.662.223 6.995 1.223 10 3-3.662-.223-6.995-1.223-10-3Z" clip-rule="evenodd"/><path fill="#e9aaaa" fill-rule="evenodd" d="M519.5 280.5c-3.299 1.983-6.966 2.983-11 3 3.354-1.758 7.021-2.758 11-3Z" clip-rule="evenodd"/><path fill="#e9aaaa" fill-rule="evenodd" d="M154.5 283.5a158.394 158.394 0 0 0 33 0c-5.069 1.557-10.402 2.224-16 2-5.917.195-11.584-.471-17-2Z" clip-rule="evenodd"/><path fill="#e9aaaa" fill-rule="evenodd" d="M352.5 294.5c-8.791-1.656-17.457-1.323-26 1 1.342-1.293 3.009-2.126 5-2.5l8.5-.5c4.442-.174 8.609.493 12.5 2Z" clip-rule="evenodd"/><path fill="#e9aaaa" fill-rule="evenodd" d="M356.5 295.5c3.281-.08 6.281.587 9 2-3.281.08-6.281-.587-9-2Z" clip-rule="evenodd"/><path fill="#e9aaaa" fill-rule="evenodd" d="M395.5 296.5c.334 2.991-.666 5.324-3 7 .435-2.657 1.435-4.991 3-7Z" clip-rule="evenodd"/><path fill="#e9aaaa" fill-rule="evenodd" d="M410.5 307.5c.271 1.88-.396 3.213-2 4 .16-1.653.826-2.986 2-4Z" clip-rule="evenodd"/><path fill="#e9aaaa" fill-rule="evenodd" d="M367.5 313.5a2390.41 2390.41 0 0 1-36 2c.763-.768 1.763-1.268 3-1.5 10.995-.5 21.995-.667 33-.5Z" clip-rule="evenodd"/><path fill="#e9aaaa" fill-rule="evenodd" d="M265.5 313.5c1.406.473 2.073 1.473 2 3-1.406-.473-2.073-1.473-2-3Z" clip-rule="evenodd"/><path fill="#e9aaaa" fill-rule="evenodd" d="M408.5 312.5c.155 3.216-.845 5.883-3 8 .629-2.897 1.629-5.564 3-8Z" clip-rule="evenodd"/><path fill="#e9aaaa" fill-rule="evenodd" d="M318.5 325.5c.073 1.527-.594 2.527-2 3-.073-1.527.594-2.527 2-3Z" clip-rule="evenodd"/><path fill="#e9aaaa" fill-rule="evenodd" d="M316.5 328.5a107.496 107.496 0 0 1-4 14c.11-5.122 1.444-9.788 4-14Z" clip-rule="evenodd"/><path fill="#e9aaaa" fill-rule="evenodd" d="M276.5 332.5c1.406.473 2.073 1.473 2 3-1.406-.473-2.073-1.473-2-3Z" clip-rule="evenodd"/><path fill="#e9aaaa" fill-rule="evenodd" d="M394.5 347.5c.073 1.527-.594 2.527-2 3-.073-1.527.594-2.527 2-3Z" clip-rule="evenodd"/><path fill="#e9aaaa" fill-rule="evenodd" d="M317.5 354.5c4.62.24 8.953 1.24 13 3-4.62-.24-8.953-1.24-13-3Z" clip-rule="evenodd"/><path fill="#e9aaaa" fill-rule="evenodd" d="M339.5 359.5h5c.215 1.679-.452 2.679-2 3 .111-.617.444-1.117 1-1.5-1.558-.21-2.891-.71-4-1.5Z" clip-rule="evenodd"/><path fill="#e9aaaa" fill-rule="evenodd" d="M382.5 365.5c-2.333 4.333-5.667 7.667-10 10 3-3.667 6.333-7 10-10Z" clip-rule="evenodd"/><path fill="#e9aaaa" fill-rule="evenodd" d="M329.5 369.5c-.847 1.466-2.18 2.3-4 2.5-4.189.812-8.189.645-12-.5 5.491.35 10.824-.316 16-2Z" clip-rule="evenodd"/><path fill="#e9aaaa" fill-rule="evenodd" d="M314.5 386.5c.343-1.983-.324-3.317-2-4 1.179-2.976 2.513-3.309 4-1-.301 1.922-.967 3.588-2 5Z" clip-rule="evenodd"/><path fill="#e9aaaa" fill-rule="evenodd" d="M312.5 382.5c1.676.683 2.343 2.017 2 4-1.174 1.014-1.84 2.347-2 4a139.403 139.403 0 0 1-4 11c-1.406.473-2.073 1.473-2 3a229.122 229.122 0 0 1-19.5 25c.809 6.959 3.309 13.292 7.5 19-.334 2.991.666 5.324 3 7 1.238 1.714 1.905 3.714 2 6a103.266 103.266 0 0 1 2 25c-.745 8.087-3.078 15.754-7 23-1.406.473-2.073 1.473-2 3-6.104 8.487-12.938 16.487-20.5 24a982.472 982.472 0 0 1 10-53c.667-4 .667-8 0-12-.232-1.237-.732-2.237-1.5-3-.694-5.415-2.36-10.415-5-15a322.72 322.72 0 0 0-7-19c-.16-1.653-.826-2.986-2-4a173.924 173.924 0 0 1-2.5-11 368.36 368.36 0 0 1 48.5-37Z" clip-rule="evenodd"/><path fill="#e9aaaa" fill-rule="evenodd" d="M314.5 386.5c.271 1.88-.396 3.213-2 4 .16-1.653.826-2.986 2-4Z" clip-rule="evenodd"/><path fill="#e9aaaa" fill-rule="evenodd" d="M343.5 390.5c-.131.876.202 1.543 1 2a5.576 5.576 0 0 1 3-1c-1.236 1.543-2.902 2.543-5 3-.921-1.531-.588-2.865 1-4Z" clip-rule="evenodd"/><path fill="#e9aaaa" fill-rule="evenodd" d="M365.5 407.5c-1.758 3.354-2.758 7.021-3 11-1.424 2.015-2.09 4.348-2 7-1.424 2.015-2.09 4.348-2 7-2.916 7.664-4.916 15.664-6 24-1.828 4.603-2.161 9.269-1 14 3.392 4.901 7.392 9.401 12 13.5 14.362 9.359 27.196 20.526 38.5 33.5a285.992 285.992 0 0 1 17.5 27c-3.259 1.266-6.593 1.766-10 1.5a270.47 270.47 0 0 0-19-20l-48-34c-5.555-5.683-9.555-12.183-12-19.5.201-6.009.534-12.009 1-18 1.54-2.338 2.206-5.005 2-8a5.727 5.727 0 0 0 1-3c2.334-1.676 3.334-4.009 3-7 1.174-1.014 1.84-2.347 2-4 1.406-.473 2.073-1.473 2-3 6.483-11.254 14.65-21.254 24.5-30-.083 2.619-.25 5.286-.5 8Z" clip-rule="evenodd"/><path fill="#e9aaaa" fill-rule="evenodd" d="M308.5 401.5c.073 1.527-.594 2.527-2 3-.073-1.527.594-2.527 2-3Z" clip-rule="evenodd"/><path fill="#e9aaaa" fill-rule="evenodd" d="M365.5 407.5c-.242 3.979-1.242 7.646-3 11 .242-3.979 1.242-7.646 3-11Z" clip-rule="evenodd"/><path fill="#e9aaaa" fill-rule="evenodd" d="M362.5 418.5c.09 2.652-.576 4.985-2 7-.09-2.652.576-4.985 2-7ZM360.5 425.5c.09 2.652-.576 4.985-2 7-.09-2.652.576-4.985 2-7Z" clip-rule="evenodd"/><path fill="#e9aaaa" fill-rule="evenodd" d="M341.5 429.5c.073 1.527-.594 2.527-2 3-.073-1.527.594-2.527 2-3Z" clip-rule="evenodd"/><path fill="#e9aaaa" fill-rule="evenodd" d="M266.5 430.5c1.174 1.014 1.84 2.347 2 4-1.604-.787-2.271-2.12-2-4Z" clip-rule="evenodd"/><path fill="#e9aaaa" fill-rule="evenodd" d="M358.5 432.5a157.866 157.866 0 0 1-6 24c1.084-8.336 3.084-16.336 6-24Z" clip-rule="evenodd"/><path fill="#e9aaaa" fill-rule="evenodd" d="M337.5 436.5c.334 2.991-.666 5.324-3 7 .435-2.657 1.435-4.991 3-7Z" clip-rule="evenodd"/><path fill="#e9aaaa" fill-rule="evenodd" d="M294.5 448.5c1.565 2.009 2.565 4.343 3 7-2.334-1.676-3.334-4.009-3-7Z" clip-rule="evenodd"/><path fill="#e9aaaa" fill-rule="evenodd" d="M333.5 446.5c.206 2.995-.46 5.662-2 8-.206-2.995.46-5.662 2-8Z" clip-rule="evenodd"/><path fill="#e9aaaa" fill-rule="evenodd" d="M275.5 453.5c2.64 4.585 4.306 9.585 5 15-2.244-4.733-3.911-9.733-5-15Z" clip-rule="evenodd"/><path fill="#e9aaaa" fill-rule="evenodd" d="M352.5 456.5a198.913 198.913 0 0 1-1 14c-1.161-4.731-.828-9.397 1-14Z" clip-rule="evenodd"/><path fill="#e9aaaa" fill-rule="evenodd" d="M331.5 454.5a407.946 407.946 0 0 0-1 18c-1.329-6.066-.995-12.066 1-18Z" clip-rule="evenodd"/><path fill="#e9aaaa" fill-rule="evenodd" d="M299.5 461.5c1.276 2.062 2.11 4.396 2.5 7 .819 6.181.653 12.181-.5 18a103.266 103.266 0 0 0-2-25Z" clip-rule="evenodd"/><path fill="#e9aaaa" fill-rule="evenodd" d="M294.5 509.5c.073 1.527-.594 2.527-2 3-.073-1.527.594-2.527 2-3Z" clip-rule="evenodd"/></svg>