<?xml version="1.0" ?><svg fill="#e9aaaa" enable-background="new 0 0 32 32" version="1.1" viewBox="0 0 32 32" xml:space="preserve" xmlns="http://www.w3.org/2000/svg" xmlns:xlink="http://www.w3.org/1999/xlink"><g id="Outline_copy_2"><g><path d="M18.128,31.777c0.09,0.037,0.195,0.062,0.3,0.062c1.202,0,2.405,0,3.607,0c0.092,0,0.374,0.006,0.391-0.137    c0.556-4.456,6.387-5.667,8.425-9.301c1.139-2.031,1.381-4.636,0.945-6.907c-0.045-0.232-0.655-0.262-0.814-0.21    c-1.967,0.645-1.676,2.161-2.056,3.961c-0.323,1.528-1.134,2.738-2.304,3.543c1.227-1.275,2.535-3.071,1.364-3.911    c-0.763-0.548-1.816-0.171-2.43,0.274c-0.928,0.674-1.709,1.688-2.608,2.425c-1.634,1.339-3.756,2.378-4.885,4.221    c-1.051,1.716-1.11,4.008-0.223,5.813C17.879,31.689,17.993,31.743,18.128,31.777z M24.145,21.612    c0.458-0.381,1.975-2.37,2.572-2.483c1.843-0.349-1.613,4.043-2.368,4.651c-0.247,0.199,0.698,0.338,0.798,0.315    c1.253-0.281,2.522-0.918,3.408-1.853c1.415-1.494,0.989-4.819,2.358-6.136c0.153,1.24,0.095,2.541-0.165,3.742    c-0.648,2.996-2.812,4.706-5.146,6.452c-1.919,1.435-3.064,2.552-4.089,4.653c-0.248,0.509,0.545,0.172-0.17,0.465    c-0.265,0.108-0.771,0-1.072,0c-0.519,0-1.037,0-1.556,0C16.624,26.779,21.057,24.181,24.145,21.612z"/><path d="M9.574,31.708c0.018,0.142,0.305,0.132,0.393,0.132c1.202,0,2.405,0,3.607,0c0.113,0,0.225-0.029,0.32-0.071    c0.124-0.036,0.228-0.089,0.265-0.164c0.842-1.716,0.831-3.878-0.083-5.551c-1.042-1.908-3.122-2.95-4.768-4.271    c-0.992-0.796-1.85-1.901-2.867-2.636c-0.61-0.44-1.613-0.801-2.382-0.288c-1.234,0.823,0.08,2.64,1.314,3.927    c-1.169-0.805-1.977-2.013-2.3-3.546c-0.378-1.791-0.087-3.312-2.058-3.959c-0.16-0.053-0.767-0.01-0.811,0.22    c-0.436,2.271-0.194,4.875,0.946,6.907C3.186,26.036,9.019,27.259,9.574,31.708z M1.085,16.101    c1.393,1.314,0.934,4.647,2.361,6.147c0.887,0.934,2.156,1.57,3.409,1.851c0.108,0.024,1.039-0.128,0.794-0.325    c-0.741-0.597-4.326-4.787-2.336-4.624c0.409,0.034,2.113,2.109,2.543,2.467c2.091,1.743,5.057,3.077,5.771,5.944    c0.311,1.249,0.171,2.664-0.347,3.855c-0.436,0-0.872,0-1.309,0c-0.328,0-0.83,0.107-1.145,0    c-0.105-0.036-0.172-0.052-0.238-0.067c0.018-0.069,0.003-0.185-0.102-0.403c-1.013-2.093-2.183-3.227-4.09-4.653    c-2.34-1.749-4.495-3.448-5.146-6.453C0.99,18.641,0.932,17.341,1.085,16.101z"/><polygon points="10.318,15.423 12.067,15.423 21.717,0.376 19.968,0.376   "/><path d="M10.722,9.608c1.174,0,2.064-0.4,2.671-1.199s0.91-1.981,0.91-3.546c0-1.503-0.309-2.662-0.928-3.479    c-0.619-0.816-1.503-1.225-2.653-1.225c-1.158,0-2.033,0.395-2.624,1.184c-0.591,0.789-0.886,1.962-0.886,3.52    c0,1.53,0.307,2.703,0.922,3.52C8.749,9.199,9.612,9.608,10.722,9.608z M9.295,2.249c0.293-0.576,0.769-0.865,1.428-0.865    c1.301,0,1.951,1.16,1.951,3.479c0,2.333-0.65,3.499-1.951,3.499c-0.658,0-1.134-0.292-1.428-0.875    c-0.294-0.583-0.44-1.458-0.44-2.624C8.854,3.697,9.001,2.825,9.295,2.249z"/><path d="M21.206,6.191c-1.158,0-2.035,0.395-2.625,1.184c-0.591,0.789-0.884,1.962-0.884,3.52c0,1.523,0.301,2.693,0.908,3.51    c0.607,0.817,1.475,1.225,2.602,1.225c1.174,0,2.062-0.4,2.669-1.199s0.912-1.978,0.912-3.535c0-1.523-0.317-2.688-0.948-3.494    S22.332,6.191,21.206,6.191z M22.681,13.534c-0.317,0.573-0.809,0.859-1.475,0.859c-0.666,0-1.146-0.29-1.44-0.87    c-0.294-0.58-0.44-1.456-0.44-2.63s0.147-2.043,0.44-2.609c0.293-0.566,0.773-0.849,1.44-0.849c0.666,0,1.158,0.283,1.475,0.849    c0.317,0.566,0.476,1.436,0.476,2.609C23.157,12.081,22.998,12.961,22.681,13.534z"/></g></g></svg>